<svg xmlns="http://www.w3.org/2000/svg" xmlns:xlink="http://www.w3.org/1999/xlink" viewBox="0 0 914 431"><defs><style>.cls-1,.cls-2,.cls-5,.cls-6{fill:none;}.cls-2,.cls-4,.cls-5,.cls-6{stroke:#891c2c;stroke-width:5px;}.cls-2,.cls-4,.cls-6{stroke-linecap:round;}.cls-2,.cls-4{stroke-linejoin:round;}.cls-3,.cls-4{fill:#891c2c;}.cls-5,.cls-6{stroke-miterlimit:10;}.cls-7{opacity:0.2;fill:url(#Nouveau_motif_3);}</style><pattern id="Nouveau_motif_3" data-name="Nouveau motif 3" width="555" height="404.24" patternUnits="userSpaceOnUse" viewBox="0 0 555 404.24"><rect class="cls-1" width="555" height="404.24"/><polygon class="cls-2" points="72.97 166.03 46.13 166.03 46.13 240.69 99.8 240.69 99.8 193.03 72.97 166.03"/><polyline class="cls-2" points="72.97 166.03 72.97 193.19 99.8 193.19"/><polyline class="cls-2" points="53.3 166.03 53.3 159.36 105.8 159.36 105.8 225.36 99.8 225.36"/><rect class="cls-2" x="148.38" y="172.46" width="44.33" height="70.33"/><rect class="cls-2" x="138.85" y="159.82" width="63.4" height="107.61"/><circle class="cls-2" cx="170.44" cy="256.61" r="4.81"/><polygon class="cls-2" points="269.03 222.36 276.36 211.36 295.03 211.36 295.03 177.69 242.03 177.69 242.03 211.36 262.7 211.36 269.03 222.36"/><line class="cls-2" x1="250.7" y1="188.02" x2="286.03" y2="188.02"/><line class="cls-2" x1="250.7" y1="198.02" x2="275.7" y2="198.02"/><polygon class="cls-2" points="509.61 96.2 402.34 96.2 392.8 96.2 392.8 53.2 509.61 53.2 509.61 96.2"/><polyline class="cls-2" points="509.61 65.2 520.66 65.2 520.66 108.2 402.33 108.2 402.33 96.2"/><path class="cls-3" d="M414,84.47a2.28,2.28,0,0,0,0-3.21,2.19,2.19,0,0,0-1.59-.64,2.11,2.11,0,0,0-1.57.65,2.15,2.15,0,0,0-.64,1.55,2.1,2.1,0,0,0,.67,1.66,2.3,2.3,0,0,0,1.58.59A2.22,2.22,0,0,0,414,84.47Z"/><path class="cls-3" d="M437.42,76.49a1.86,1.86,0,0,0-1.35-.55,1.57,1.57,0,0,0-1.33.54,4.68,4.68,0,0,0-.7,1.4,5.68,5.68,0,0,1-2,2.76,5.35,5.35,0,0,1-3.2.94,5.55,5.55,0,0,1-3-.83,5.31,5.31,0,0,1-2-2.51A10.84,10.84,0,0,1,423.1,74a9.31,9.31,0,0,1,1.6-5.84A5.19,5.19,0,0,1,429,66.13a4.93,4.93,0,0,1,2.86.8,6.62,6.62,0,0,1,2,2.41,5.54,5.54,0,0,0,.94,1.38,1.78,1.78,0,0,0,1.26.4,1.69,1.69,0,0,0,1.29-.58,1.9,1.9,0,0,0,.53-1.33,5.13,5.13,0,0,0-1.09-2.92,8.49,8.49,0,0,0-3.15-2.6A10.16,10.16,0,0,0,429,62.64a10.78,10.78,0,0,0-4.07.77,9.52,9.52,0,0,0-3.33,2.24,10,10,0,0,0-2.18,3.54,13.52,13.52,0,0,0-.76,4.69,14.65,14.65,0,0,0,.3,3,11.87,11.87,0,0,0,.91,2.7,10.75,10.75,0,0,0,1.46,2.29,8.61,8.61,0,0,0,2.11,1.81,8.77,8.77,0,0,0,2.55,1,13.87,13.87,0,0,0,3.12.33,10.05,10.05,0,0,0,4-.72,8.18,8.18,0,0,0,2.8-1.89,8.1,8.1,0,0,0,1.61-2.37,5.79,5.79,0,0,0,.51-2.24A1.82,1.82,0,0,0,437.42,76.49Z"/><path class="cls-3" d="M447,63.42a9,9,0,0,0-3.31,2.24,9.83,9.83,0,0,0-2.08,3.55,14,14,0,0,0-.72,4.59,14.5,14.5,0,0,0,.69,4.54,9.9,9.9,0,0,0,2,3.59A9,9,0,0,0,447,84.25a13.18,13.18,0,0,0,9.1,0A8.93,8.93,0,0,0,459.45,82a9.91,9.91,0,0,0,2-3.56,14.5,14.5,0,0,0,.68-4.57,13.25,13.25,0,0,0-1.24-5.92A8.87,8.87,0,0,0,457.26,64a11.58,11.58,0,0,0-5.79-1.37A11.93,11.93,0,0,0,447,63.42Zm9.84,14.71a5.83,5.83,0,0,1-2.25,2.6,6.17,6.17,0,0,1-5.52.35,5.53,5.53,0,0,1-2-1.47,6.86,6.86,0,0,1-1.32-2.48,11.21,11.21,0,0,1-.47-3.34,10.94,10.94,0,0,1,.47-3.31,6.88,6.88,0,0,1,1.27-2.42A5.35,5.35,0,0,1,449,66.63a5.94,5.94,0,0,1,2.43-.5,6,6,0,0,1,3.28.9,5.75,5.75,0,0,1,2.2,2.64,10.18,10.18,0,0,1,.77,4.13A10.06,10.06,0,0,1,456.88,78.13Z"/><path class="cls-3" d="M473.6,82.74a4.84,4.84,0,0,0,.47,1.15,2.34,2.34,0,0,0,2.13,1.18,2.31,2.31,0,0,0,1.6-.52,2.72,2.72,0,0,0,.79-1.15q.22-.63.56-2l3.48-13.82v15a2.7,2.7,0,0,0,.56,1.86,1.85,1.85,0,0,0,1.43.62,1.9,1.9,0,0,0,1.49-.62,2.73,2.73,0,0,0,.55-1.86V65.42a2.15,2.15,0,0,0-.74-1.92,3.54,3.54,0,0,0-2-.5h-1.36a5.19,5.19,0,0,0-1.78.22,1.5,1.5,0,0,0-.82.8,12.36,12.36,0,0,0-.61,1.88l-3.15,11.88L473,65.91a12.59,12.59,0,0,0-.61-1.88,1.5,1.5,0,0,0-.82-.8,5.19,5.19,0,0,0-1.78-.22h-1.36a3.54,3.54,0,0,0-2,.5,2.15,2.15,0,0,0-.74,1.92V82.58a2.69,2.69,0,0,0,.56,1.87,2,2,0,0,0,2.92,0,2.72,2.72,0,0,0,.55-1.86v-15l3.48,13.82Z"/><polygon class="cls-2" points="188.95 139.57 81.68 139.57 72.15 139.57 72.15 96.57 188.95 96.57 188.95 139.57"/><path class="cls-3" d="M93.31,127.84a2.28,2.28,0,0,0,0-3.21,2.19,2.19,0,0,0-1.59-.64,2.11,2.11,0,0,0-1.57.65,2.15,2.15,0,0,0-.64,1.55,2.1,2.1,0,0,0,.67,1.66,2.3,2.3,0,0,0,1.58.59A2.22,2.22,0,0,0,93.31,127.84Z"/><path class="cls-3" d="M104,106.8a9,9,0,0,0-3.31,2.24,9.83,9.83,0,0,0-2.08,3.55,14,14,0,0,0-.72,4.59,14.5,14.5,0,0,0,.69,4.54,9.9,9.9,0,0,0,2,3.59,9,9,0,0,0,3.36,2.31,13.18,13.18,0,0,0,9.1,0,8.93,8.93,0,0,0,3.34-2.31,9.91,9.91,0,0,0,2-3.56,14.5,14.5,0,0,0,.68-4.57,13.25,13.25,0,0,0-1.24-5.92,8.87,8.87,0,0,0-3.66-3.89,11.58,11.58,0,0,0-5.79-1.37A11.93,11.93,0,0,0,104,106.8Zm9.84,14.71a5.83,5.83,0,0,1-2.25,2.6,6.17,6.17,0,0,1-5.52.35,5.53,5.53,0,0,1-2-1.47,6.86,6.86,0,0,1-1.32-2.48,11.21,11.21,0,0,1-.47-3.34,10.94,10.94,0,0,1,.47-3.31,6.88,6.88,0,0,1,1.27-2.42A5.35,5.35,0,0,1,106,110a5.94,5.94,0,0,1,2.43-.5,6,6,0,0,1,3.28.9,5.75,5.75,0,0,1,2.2,2.64,10.18,10.18,0,0,1,.77,4.13A10.06,10.06,0,0,1,113.8,121.51Z"/><path class="cls-3" d="M130.68,119.11a4.18,4.18,0,0,1,1.52,1.15,16.17,16.17,0,0,1,1.69,2.46l1.76,2.93q.62,1,1,1.57a3.34,3.34,0,0,0,.87.88,2.13,2.13,0,0,0,1.24.35,2.35,2.35,0,0,0,1.09-.24,1.92,1.92,0,0,0,.75-.67,1.55,1.55,0,0,0,.27-.85,4.9,4.9,0,0,0-.47-1.52,19.07,19.07,0,0,0-1.3-2.47,18.57,18.57,0,0,0-1.9-2.58,8,8,0,0,0-2.23-1.83,7.86,7.86,0,0,0,4.15-2.06,5.42,5.42,0,0,0,1.37-3.88,6.18,6.18,0,0,0-.41-2.24,5.38,5.38,0,0,0-1.19-1.86,5.49,5.49,0,0,0-1.8-1.23,6.37,6.37,0,0,0-1.89-.51,21.79,21.79,0,0,0-2.53-.13H125.5a2.31,2.31,0,0,0-2.69,2.69v16.69a3,3,0,0,0,.58,2,2,2,0,0,0,1.63.68,2.06,2.06,0,0,0,1.58-.65,2.89,2.89,0,0,0,.61-2v-7h1.54A5.21,5.21,0,0,1,130.68,119.11Zm3.61-9.1a2.74,2.74,0,0,1,1.73,2.62,2.68,2.68,0,0,1-.57,1.81,3.12,3.12,0,0,1-1.65.93,11,11,0,0,1-2.66.27h-3.93v-6h4.05A9.16,9.16,0,0,1,134.29,110Z"/><path class="cls-3" d="M163.65,117.57a1.75,1.75,0,0,0-1-.72,6.36,6.36,0,0,0-1.55-.16h-5a2.06,2.06,0,0,0-1.43.47,1.55,1.55,0,0,0-.53,1.2,1.34,1.34,0,0,0,.63,1.26,3.73,3.73,0,0,0,1.86.37H160v3.52a14.49,14.49,0,0,1-2.71,1.14,10,10,0,0,1-2.86.4,6.08,6.08,0,0,1-4.89-2.06,8.8,8.8,0,0,1-1.75-5.87,10.77,10.77,0,0,1,.45-3.21,6.87,6.87,0,0,1,1.3-2.45,5.63,5.63,0,0,1,2-1.52,6.72,6.72,0,0,1,2.72-.53,5.78,5.78,0,0,1,2.43.44,4.43,4.43,0,0,1,1.52,1.09,17.72,17.72,0,0,1,1.38,1.92,2.05,2.05,0,0,0,.73.62,2,2,0,0,0,.91.22,2.06,2.06,0,0,0,1.47-.58,1.88,1.88,0,0,0,.61-1.41,3.81,3.81,0,0,0-.53-1.76,6.55,6.55,0,0,0-1.58-1.88,8.53,8.53,0,0,0-2.74-1.47,11.82,11.82,0,0,0-3.87-.58,13.68,13.68,0,0,0-4.76.78,9.74,9.74,0,0,0-3.57,2.24,9.51,9.51,0,0,0-2.22,3.56,13.61,13.61,0,0,0-.75,4.63,13.28,13.28,0,0,0,.78,4.66,9.85,9.85,0,0,0,2.23,3.55,9.57,9.57,0,0,0,3.51,2.23,12.91,12.91,0,0,0,4.56.77,15.28,15.28,0,0,0,4-.49,17.6,17.6,0,0,0,3.79-1.55,5.64,5.64,0,0,0,1.12-.77,2.1,2.1,0,0,0,.6-.9,4.37,4.37,0,0,0,.16-1.32v-4.16A3,3,0,0,0,163.65,117.57Z"/><polygon class="cls-2" points="338.32 317.07 231.05 317.07 221.51 317.07 221.51 274.07 338.32 274.07 338.32 317.07"/><path class="cls-3" d="M254.76,305.31a2.71,2.71,0,0,0,.84,1.13,2.44,2.44,0,0,0,1.61.5,2.41,2.41,0,0,0,1.65-.52,2.88,2.88,0,0,0,.83-1.21q.24-.69.61-2.17l3.61-14.6a9.27,9.27,0,0,0,.33-1.94,1.89,1.89,0,0,0-.6-1.43,2,2,0,0,0-1.46-.57,1.79,1.79,0,0,0-1.31.44,2.49,2.49,0,0,0-.64,1,15,15,0,0,0-.39,1.55L257,300.18l-3.21-11.85q-.4-1.46-.64-2.1a3,3,0,0,0-.85-1.18,2.53,2.53,0,0,0-1.72-.54,2.66,2.66,0,0,0-1.73.52,3,3,0,0,0-.92,1.23,19.2,19.2,0,0,0-.64,2.07l-3.18,11.85-2.84-12.66a8.71,8.71,0,0,0-.72-2.23,1.66,1.66,0,0,0-1.61-.77,2,2,0,0,0-1.46.58,1.91,1.91,0,0,0-.59,1.42,8.55,8.55,0,0,0,.33,1.94l3.61,14.6q.16.65.37,1.41a5.38,5.38,0,0,0,.53,1.32,2.32,2.32,0,0,0,.85.86,2.65,2.65,0,0,0,1.34.3,2.42,2.42,0,0,0,1.61-.51,2.81,2.81,0,0,0,.85-1.15q.24-.64.66-2.12l3.55-13,3.51,13Q254.52,304.68,254.76,305.31Z"/><path class="cls-3" d="M283.17,305.31a2.71,2.71,0,0,0,.84,1.13,2.44,2.44,0,0,0,1.61.5,2.41,2.41,0,0,0,1.65-.52,2.88,2.88,0,0,0,.83-1.21q.24-.69.61-2.17l3.61-14.6a9.27,9.27,0,0,0,.33-1.94,1.89,1.89,0,0,0-.6-1.43,2,2,0,0,0-1.46-.57,1.79,1.79,0,0,0-1.31.44,2.49,2.49,0,0,0-.64,1,15,15,0,0,0-.39,1.55l-2.84,12.66-3.21-11.85q-.4-1.46-.64-2.1a3,3,0,0,0-.85-1.18,2.53,2.53,0,0,0-1.72-.54,2.66,2.66,0,0,0-1.73.52,3,3,0,0,0-.92,1.23,19.2,19.2,0,0,0-.64,2.07l-3.18,11.85-2.84-12.66a8.71,8.71,0,0,0-.72-2.23,1.66,1.66,0,0,0-1.61-.77,2,2,0,0,0-1.46.58,1.91,1.91,0,0,0-.59,1.42,8.55,8.55,0,0,0,.33,1.94l3.61,14.6q.16.65.37,1.41a5.38,5.38,0,0,0,.53,1.32,2.32,2.32,0,0,0,.85.86,2.65,2.65,0,0,0,1.34.3,2.42,2.42,0,0,0,1.61-.51,2.81,2.81,0,0,0,.85-1.15q.24-.64.66-2.12l3.55-13,3.51,13Q282.94,304.68,283.17,305.31Z"/><path class="cls-3" d="M311.59,305.31a2.71,2.71,0,0,0,.84,1.13,2.44,2.44,0,0,0,1.61.5,2.41,2.41,0,0,0,1.65-.52,2.88,2.88,0,0,0,.83-1.21q.24-.69.61-2.17l3.61-14.6a9.27,9.27,0,0,0,.33-1.94,1.89,1.89,0,0,0-.6-1.43,2,2,0,0,0-1.46-.57,1.79,1.79,0,0,0-1.31.44,2.49,2.49,0,0,0-.64,1,15,15,0,0,0-.39,1.55l-2.84,12.66-3.21-11.85q-.4-1.46-.64-2.1a3,3,0,0,0-.85-1.18,2.53,2.53,0,0,0-1.72-.54,2.66,2.66,0,0,0-1.73.52,3,3,0,0,0-.92,1.23,19.2,19.2,0,0,0-.64,2.07L301,300.18l-2.84-12.66a8.71,8.71,0,0,0-.72-2.23,1.66,1.66,0,0,0-1.61-.77,2,2,0,0,0-1.46.58,1.91,1.91,0,0,0-.59,1.42,8.55,8.55,0,0,0,.33,1.94l3.61,14.6q.16.65.37,1.41a5.38,5.38,0,0,0,.53,1.32,2.32,2.32,0,0,0,.85.86,2.65,2.65,0,0,0,1.34.3,2.42,2.42,0,0,0,1.61-.51,2.81,2.81,0,0,0,.85-1.15q.24-.64.66-2.12l3.55-13,3.51,13Q311.35,304.68,311.59,305.31Z"/><path class="cls-3" d="M13.45,129.14a8.45,8.45,0,0,0-.17,1.59,3,3,0,0,0,.89,2.25,3.41,3.41,0,0,0,2.47.86,2.63,2.63,0,0,0,2.58-1.16,16,16,0,0,0,1.16-3.78l1.45-7.09h6.82l-1.14,5.77a14.53,14.53,0,0,0-.43,3.15A3,3,0,0,0,28,133a3.36,3.36,0,0,0,2.44.86,3,3,0,0,0,2.13-.69,3.5,3.5,0,0,0,1-1.62q.26-.93.6-2.62l1.45-7.09h4.75a4.52,4.52,0,0,0,3.13-.94,3.16,3.16,0,0,0,1-2.45,3.28,3.28,0,0,0-1-2.5,4.39,4.39,0,0,0-3.12-1H36.9l1.85-9h1.57a4.58,4.58,0,0,0,3.12-.93,3.13,3.13,0,0,0,1-2.47q0-3.33-4.41-3.42l1.14-5.8.15-.72q.12-.57.2-1.19a10.12,10.12,0,0,0,.08-1.26,3,3,0,0,0-.88-2.25,3.47,3.47,0,0,0-2.48-.83,3,3,0,0,0-2.11.68,3.56,3.56,0,0,0-1,1.67q-.28,1-.59,2.59l-1.48,7.06H26.36l1.14-5.74q.52-2.81.52-3.12A3,3,0,0,0,27.16,88a3.39,3.39,0,0,0-2.5-.86,3.16,3.16,0,0,0-1.9.52,3.45,3.45,0,0,0-1.14,1.54A15.06,15.06,0,0,0,20.87,92l-1.45,7.06H14.82a4.59,4.59,0,0,0-3.13.94,3.16,3.16,0,0,0-1.06,2.48,3.2,3.2,0,0,0,1.1,2.45,4.42,4.42,0,0,0,3.1,1H18l-1.76,9H14.82a4.49,4.49,0,0,0-3.13,1,3.25,3.25,0,0,0-1.06,2.51q0,3.3,4.26,3.39l-1.14,5.77Q13.62,128.26,13.45,129.14ZM30,114.94H23.15L25,106h6.82Z"/><rect class="cls-2" x="9.5" y="302.26" width="110.5" height="65"/><rect class="cls-2" x="2.5" y="367.26" width="124.5" height="11.14"/><line class="cls-2" x1="44.83" y1="369.6" x2="82.5" y2="369.6"/><line class="cls-2" x1="62.67" y1="324.01" x2="43.46" y2="343.22"/><line class="cls-2" x1="82.67" y1="328.01" x2="63.46" y2="347.22"/><path class="cls-2" d="M226.42,102.57V85.82a6.77,6.77,0,0,1,6.75-6.75h0a6.77,6.77,0,0,1,6.75,6.75v16.75"/><rect class="cls-2" x="220.83" y="102.57" width="24.83" height="11.17" rx="5.58" ry="5.58"/><polyline class="cls-2" points="227.17 113.74 227.17 139.74 233.25 148.57 239.92 139.74 239.92 113.74"/><line class="cls-2" x1="239.92" y1="120.74" x2="227.17" y2="133.07"/><rect class="cls-2" x="338.62" y="141.07" width="170.33" height="104.67" rx="5.67" ry="5.67"/><line class="cls-2" x1="508.95" y1="227.74" x2="338.62" y2="227.74"/><polyline class="cls-2" points="406.78 245.74 403.45 265.74 444.12 265.74 440.12 245.74"/><rect class="cls-2" x="398.03" y="265.74" width="51.67" height="3.33"/><line class="cls-2" x1="424.33" y1="177.42" x2="405.12" y2="196.63"/><line class="cls-2" x1="444.33" y1="181.42" x2="425.12" y2="200.63"/><path class="cls-2" d="M307.59,49.82H327A14.17,14.17,0,0,1,341.17,64v47a.57.57,0,0,1-.57.57H294a.57.57,0,0,1-.57-.57V64a14.17,14.17,0,0,1,14.17-14.17Z"/><path class="cls-2" d="M341.71,57.82a17.44,17.44,0,0,1,0,34.88"/><path class="cls-2" d="M305.29,10.2a14.3,14.3,0,0,0-2.75,8.38c0,5,2.75,5.13,2.75,9.25a12.15,12.15,0,0,1-2.75,7.25"/><path class="cls-2" d="M318.29,10.2a14.3,14.3,0,0,0-2.75,8.38c0,5,2.75,5.13,2.75,9.25a12.15,12.15,0,0,1-2.75,7.25"/><path class="cls-2" d="M331.29,10.2a14.3,14.3,0,0,0-2.75,8.38c0,5,2.75,5.13,2.75,9.25a12.15,12.15,0,0,1-2.75,7.25"/><rect class="cls-2" x="146.42" y="66.57" width="13.38" height="13.38"/><rect class="cls-4" x="265.17" y="59.95" width="5.75" height="5.75"/><circle class="cls-2" cx="90" cy="286.07"/><path class="cls-2" d="M80,280.28a11.59,11.59,0,0,1,20.06,0"/><path class="cls-2" d="M69.93,274.49a23.17,23.17,0,0,1,40.13,0"/><circle class="cls-5" cx="67.26" cy="22.81" r="20.31" transform="translate(3.57 54.24) rotate(-45)"/><polyline class="cls-2" points="81.63 37.18 87.92 43.48 89.89 45.44"/><path class="cls-2" d="M116.65,62.15,106.59,72.2a.57.57,0,0,1-.8,0L84.87,51.27a.57.57,0,0,1,0-.8L94.92,40.42a.57.57,0,0,1,.8,0l20.93,20.93A.57.57,0,0,1,116.65,62.15Z"/><path class="cls-6" d="M75.48,17.57a5.5,5.5,0,0,1,.74,8.4"/><line class="cls-6" x1="100.76" y1="45.45" x2="89.9" y2="56.31"/><rect class="cls-2" x="160.42" y="295.57" width="13.38" height="13.38"/><rect class="cls-4" x="19.42" y="259.57" width="5.75" height="5.75"/><rect class="cls-4" x="236.42" y="250.57" width="5.75" height="5.75"/><rect class="cls-2" x="304.42" y="227.57" width="13.38" height="13.38"/><line class="cls-2" x1="248.67" y1="340.91" x2="285.67" y2="340.91"/><line class="cls-2" x1="304.42" y1="327.91" x2="306.42" y2="327.91"/><line class="cls-2" x1="15.67" y1="59.91" x2="52.67" y2="59.91"/><line class="cls-2" x1="512.67" y1="125.91" x2="549.67" y2="125.91"/><rect class="cls-4" x="526.42" y="263.57" width="5.75" height="5.75"/><rect class="cls-2" x="504.42" y="373.57" width="13.38" height="13.38"/><rect class="cls-2" x="441.42" y="16.57" width="13.38" height="13.38"/><circle class="cls-2" cx="377.17" cy="299.07" r="15.5"/><circle class="cls-2" cx="408.5" cy="346.07" r="9.83"/><circle class="cls-2" cx="408.5" cy="346.07" r="9.83"/><circle class="cls-2" cx="363.5" cy="346.07" r="9.83"/><circle class="cls-2" cx="409.5" cy="389.07" r="9.83"/><line class="cls-2" x1="401.68" y1="383.13" x2="369.18" y2="354.09"/><line class="cls-2" x1="398.67" y1="345.41" x2="373.33" y2="345.41"/><line class="cls-2" x1="405.4" y1="336.75" x2="388.37" y2="309.78"/><line class="cls-2" x1="177.33" y1="349.24" x2="185.5" y2="357.41"/><line class="cls-2" x1="185.5" y1="349.24" x2="177.33" y2="357.41"/><line class="cls-2" x1="544.33" y1="27.24" x2="552.5" y2="35.41"/><line class="cls-2" x1="552.5" y1="27.24" x2="544.33" y2="35.41"/><line class="cls-2" x1="18.33" y1="12.24" x2="26.5" y2="20.41"/><line class="cls-2" x1="26.5" y1="12.24" x2="18.33" y2="20.41"/><line class="cls-2" x1="441.33" y1="310.24" x2="449.5" y2="318.41"/><line class="cls-2" x1="449.5" y1="310.24" x2="441.33" y2="318.41"/><circle class="cls-2" cx="286.38" cy="139.2" r="8.04"/><circle class="cls-2" cx="18.38" cy="180.2" r="8.04"/><circle class="cls-2" cx="309.38" cy="374.2" r="8.04"/><polygon class="cls-2" points="202.43 26.45 216.04 12.84 229.65 26.45 216.04 40.06 202.43 26.45"/><path class="cls-2" d="M224.67,378.44a16.6,16.6,0,1,0-15.29,23.06l46.67.24a13.23,13.23,0,1,0-9.36-22.59"/><path class="cls-2" d="M215.42,368.3a19.14,19.14,0,0,1,18.5-13.23c10.63,0,19.25,8.19,19.25,18.28"/><path class="cls-3" d="M486.59,318.84A4.59,4.59,0,0,0,481,320a10.92,10.92,0,0,0-2.11,4.49,2.66,2.66,0,0,0,.91,3,32.76,32.76,0,0,1,5.79,7,47.94,47.94,0,0,1,6,15.33c.36,1.61.9,2,2.53,2l20.94,0a2.15,2.15,0,0,0,2.45-1.75c2.19-6.36,4-12.8,4.44-19.56.21-3.42.42-6.85.46-10.28a6.18,6.18,0,0,0-4.38-6.12,13.29,13.29,0,0,0-2.95-.26,1.68,1.68,0,0,1-1.5-.73,5.15,5.15,0,0,0-3.81-2.15c-.9-.09-1.82-.06-2.71-.17a2.16,2.16,0,0,1-1.16-.49,5.64,5.64,0,0,0-2.94-1.59c-.8-.13-1.62-.18-2.49-.27,0-1.81.12-3.61,0-5.38a12.17,12.17,0,0,0-.93-3.83,4.94,4.94,0,0,0-4.65-3,5.14,5.14,0,0,0-4.74,2.79,8.13,8.13,0,0,0-1.05,4.15q0,7.79,0,15.58c0,.5,0,1,0,1.58A28.53,28.53,0,0,0,486.59,318.84Zm24.65-1c0,1.7,0,3.4,0,5.11,0,1.44.7,2.3,1.9,2.32s2-.87,2-2.31c0-1.7,0-3.39,0-5.07,2.25-.36,3.42.59,3.39,2.88a81.58,81.58,0,0,1-.37,8.15c-.41,3.65-1,7.29-1.69,10.89-.51,2.54-1.43,5-2.16,7.49-.12.4-.28.61-.75.61-6.07,0-12.14,0-18.3,0-.29-1.05-.58-2.14-.89-3.21a45.13,45.13,0,0,0-8.49-16.48c-.8-1-1.65-1.87-2.53-2.76a1,1,0,0,1-.25-1.19c.76-2.16,1.51-2.41,3.25-.9a35.64,35.64,0,0,1,2.92,3c.83.9,1.58,1.22,2.44.9s1.32-1,1.32-2.23c0-7.15,0-14.3,0-21.45a6.62,6.62,0,0,1,.52-2.45,1.64,1.64,0,0,1,1.2-.86A1.61,1.61,0,0,1,496,301a6.93,6.93,0,0,1,.55,2.53c.05,4.59,0,9.19,0,13.79a1.93,1.93,0,0,0,2.78,1.9,2.07,2.07,0,0,0,1.15-2c0-1.5,0-3,0-4.51,0,0,0-.1.06-.15,2.19-.31,3.23.59,3.31,2.93,0,1.36,0,2.72,0,4.08a2,2,0,0,0,2,2.2,2,2,0,0,0,2-2.21c0-1.55,0-3.11,0-4.65C510.15,314.61,511.19,315.51,511.24,317.83Z"/><polygon class="cls-2" points="442.43 368.45 456.04 354.84 469.65 368.45 456.04 382.06 442.43 368.45"/><line class="cls-2" x1="140.33" y1="16.24" x2="148.5" y2="24.41"/><line class="cls-2" x1="148.5" y1="16.24" x2="140.33" y2="24.41"/></pattern></defs><title>freelance-overlay</title><g id="Calque_2" data-name="Calque 2"><g id="Calque_1-2" data-name="Calque 1"><rect class="cls-7" width="914" height="431"/></g></g></svg>