<svg xmlns="http://www.w3.org/2000/svg" viewBox="0 0 15.79 29"><title>icon-github</title><g id="Calque_2" data-name="Calque 2"><g id="Calque_1-2" data-name="Calque 1"><path id="Github" d="M15.79.09C13.2,1.71,10.52.34,8.6.09.09-1-2.62,8.89,3.58,12.87c-1.6.83-1.49,5,.22,5.63C-.23,19-1,24.64,1.18,27c2.63,2.82,10.71,2.63,13.08,0,1.65-1.84,1.88-5.62.44-7.37C13.38,18,6.75,17.76,6.85,15.26c.07-1.75,2.47-1.47,3.92-2.17A7.05,7.05,0,0,0,14,4.85c.61-.11,1.13-.32,1.74-.43V.09ZM5.33,9.19c-3.19-6.95,7.33-6.45,4.14,0A3.82,3.82,0,0,1,5.33,9.19Zm5.89,13.65c.28,3.12-6,3.25-6.76,1.08-.61-1.83.15-2.35,2-2.82C8.47,20.57,11,20.76,11.21,22.84Z"/></g></g></svg>