<svg xmlns="http://www.w3.org/2000/svg" viewBox="0 0 30 24.37"><defs><style>.cls-1{fill:#030203;}</style></defs><title>icon-twitter</title><g id="Calque_2" data-name="Calque 2"><g id="Calque_1-2" data-name="Calque 1"><path class="cls-1" d="M30,2.88a12.29,12.29,0,0,1-3.53,1A6.18,6.18,0,0,0,29.17.45a12.41,12.41,0,0,1-3.91,1.49A6.16,6.16,0,0,0,14.77,7.55,17.47,17.47,0,0,1,2.09,1.12,6.16,6.16,0,0,0,4,9.34a6.15,6.15,0,0,1-2.79-.77v.08a6.16,6.16,0,0,0,4.94,6,6.23,6.23,0,0,1-1.62.22,5.91,5.91,0,0,1-1.16-.11,6.16,6.16,0,0,0,5.75,4.27,12.35,12.35,0,0,1-7.64,2.63A13.08,13.08,0,0,1,0,21.6a17.4,17.4,0,0,0,9.43,2.77c11.32,0,17.51-9.38,17.51-17.51l0-.8A12.29,12.29,0,0,0,30,2.88Z"/></g></g></svg>