<svg xmlns="http://www.w3.org/2000/svg" xmlns:xlink="http://www.w3.org/1999/xlink" viewBox="0 0 709.29 169.93"><defs><style>.cls-1{fill:#fff;}.cls-2{fill:#fff;}</style><symbol id="logo" data-name="logo" viewBox="0 0 709.29 169.93"><path class="cls-1" d="M50.42,90.77A27.4,27.4,0,0,1,62,101.6a31.67,31.67,0,0,1,4.09,16.23A31.67,31.67,0,0,1,62,134.07,27.75,27.75,0,0,1,50.42,145a37.37,37.37,0,0,1-17.3,3.87A37.12,37.12,0,0,1,15.79,145,28.41,28.41,0,0,1,4.17,134.07,31.18,31.18,0,0,1,0,117.83,31.18,31.18,0,0,1,4.17,101.6,28,28,0,0,1,15.79,90.77,37.57,37.57,0,0,1,33.12,87,37.82,37.82,0,0,1,50.42,90.77ZM23.33,106.7q-3.76,4.38-3.76,11.35t3.76,11.41a12.33,12.33,0,0,0,9.79,4.33,12.28,12.28,0,0,0,9.74-4.33q3.76-4.33,3.76-11.41T42.86,106.7a12.22,12.22,0,0,0-9.74-4.39A12.26,12.26,0,0,0,23.33,106.7Z"/><path class="cls-1" d="M129.53,90.83a25.89,25.89,0,0,1,10,10.94,36.2,36.2,0,0,1,3.54,16.4,35.47,35.47,0,0,1-3.48,16.07A25.68,25.68,0,0,1,129.8,145a27.86,27.86,0,0,1-14.7,3.81,24.34,24.34,0,0,1-10.56-2.25,21.53,21.53,0,0,1-8-6.47v29.83H77.16V87.62H96.57v8a22.17,22.17,0,0,1,7.84-6.42A23.09,23.09,0,0,1,114.67,87,28.41,28.41,0,0,1,129.53,90.83ZM119.74,129q3.76-4.44,3.76-11.41t-3.76-11.35a12.27,12.27,0,0,0-9.79-4.39,12.12,12.12,0,0,0-9.6,4.39q-3.78,4.38-3.78,11.35t3.7,11.46a12.06,12.06,0,0,0,9.68,4.39A12.2,12.2,0,0,0,119.74,129Z"/><path class="cls-1" d="M185,147.91a34.08,34.08,0,0,1-8.67,1.12q-9,0-14.53-5t-5.54-14.2V103.14h-8.45V90.42h8.45V73.58h19.3V90.31h15.85v12.83H175.59v23.69q0,6.63,5.38,6.63a20,20,0,0,0,7.73-2l3.84,13.49A30.68,30.68,0,0,1,185,147.91Z"/><path class="cls-1" d="M219.38,62.86a10.92,10.92,0,0,1,0,14.78,10.77,10.77,0,0,1-14.72,0,10.13,10.13,0,0,1-2.85-7.4,10,10,0,0,1,2.85-7.37,10.85,10.85,0,0,1,14.72,0Zm-17.14,85.3V87.62H221.6v60.54Z"/><path class="cls-1" d="M333.88,93.08q5.89,6.33,5.89,16.92v38.17h-19.3V115.37q0-5.37-2.8-8.47a9.82,9.82,0,0,0-7.68-3.1,10.77,10.77,0,0,0-8.58,4.08,15.87,15.87,0,0,0-3.21,10.28v30H278.8V115.37q0-5.37-2.74-8.47a9.58,9.58,0,0,0-7.57-3.1,11,11,0,0,0-8.75,4.17,15.76,15.76,0,0,0-3.26,10.2v30H237.12V87.62h19.36v10a19.77,19.77,0,0,1,8.12-8.06,26,26,0,0,1,11.84-2.8,21.88,21.88,0,0,1,12.64,3.65,19.73,19.73,0,0,1,7.6,10.06A21.76,21.76,0,0,1,305,90.28a24.6,24.6,0,0,1,13-3.54Q328,86.74,333.88,93.08Z"/><path class="cls-1" d="M353.54,148.16V87.62H372.9v60.54Z"/><path class="cls-1" d="M408.88,133.57h30.66v14.59h-55V136.48l29.72-34.27H385.63V87.62h52.92V99.3Z"/><path class="cls-1" d="M633,94.77q5.84,6.11,5.84,16.86v36.52H630.1V114q0-7.84-4.39-12.28t-12-4.44q-9.1.22-14.23,6.17t-5.13,15.65v29.07h-8.83V114q0-7.84-4.33-12.28t-12.06-4.44q-9,.22-14.23,6.17t-5.24,15.65v29.07H541V89h8.61v13.33a21.06,21.06,0,0,1,8.64-10.15,27.67,27.67,0,0,1,14-3.51q8.33,0,13.82,4a19.83,19.83,0,0,1,7.41,11.43,21.43,21.43,0,0,1,8.69-11.54,27.53,27.53,0,0,1,14.67-3.92Q627.14,88.66,633,94.77Z"/><path class="cls-1" d="M702.87,97.68q7.07,8.91,6.36,24.32H661a21.05,21.05,0,0,0,6.94,13.76,21.27,21.27,0,0,0,14.51,5.1,26.42,26.42,0,0,0,10.15-1.92,24.42,24.42,0,0,0,8.17-5.49l4.82,5.16a29.06,29.06,0,0,1-10.39,7.29,34.19,34.19,0,0,1-13.41,2.58,30.8,30.8,0,0,1-15.35-3.76A26.24,26.24,0,0,1,656,134.18a32.08,32.08,0,0,1-3.7-15.57,31.51,31.51,0,0,1,3.75-15.55,26.58,26.58,0,0,1,10.5-10.53,30.89,30.89,0,0,1,15.3-3.76Q695.79,88.77,702.87,97.68Zm-7.27,3.59q-5.35-5-14-5a20.27,20.27,0,0,0-14.06,5A20.63,20.63,0,0,0,661,114.82h40.42Q700.94,106.26,695.6,101.27Z"/><circle class="cls-2" cx="491.06" cy="139.61" r="10"/><path class="cls-1" d="M488.88,106.69H487c.16-19.57-11.54-44.89-44.86-57.25-23.15-8.59-46-5.72-57,7.16l-1.43-1.21c11.43-13.48,35.15-16.58,59-7.71C477,60.36,489,86.48,488.88,106.69Z"/><path class="cls-1" d="M497.24,107.55l-1.88-.77c.25-.55,27.08-55,110.08-55v1.88c-42,0-70.6,14.65-85.73,26.94C503.32,93.92,497.3,107.41,497.24,107.55Z"/><circle class="cls-2" cx="363.55" cy="70.31" r="11.21"/><path class="cls-2" d="M659.46,24.4s-5.64,7.22-9.56,20.92a30.42,30.42,0,0,1,6.71.61c3.17-10.54,5.73-12.78,6.94-15.16a21.3,21.3,0,0,0-1.83-3.49A19.27,19.27,0,0,0,659.46,24.4Z"/><path class="cls-2" d="M645.69,63.45c-.31,1.69-.49,3.37-1.07,6.87l6.29,1.93c.67-4,.95-6.21,1.37-8.44A31,31,0,0,0,645.69,63.45Z"/><path class="cls-2" d="M694.47,60.35A15.63,15.63,0,0,0,687.25,65,65.6,65.6,0,0,0,669,54.2c-9.45-3.86-20.85-3.68-21.17-3.63s-17.34-1.32-17.18-13.23c.09-6.71,3.63-12.83,9.44-15.37a47.21,47.21,0,0,1,14.27-3.3,91,91,0,0,1,9.67.41,14,14,0,0,0,13.9,8.87,13.79,13.79,0,0,0,5.22-1.37h0a14,14,0,1,0-20-14,56.5,56.5,0,0,0-8.54-.26,42.37,42.37,0,0,0-18.54,5.16C626.69,22.53,623.13,32.4,624,39c1,7.63,6,14,12.08,16.62A23.08,23.08,0,0,0,648,57.74c6.16.09,15,1.24,20.64,3.51,8.86,3.55,18.65,11.21,19.29,11.78,3.37-4.18,6.88-6.95,9-7.22ZM679.14,5.72a8.53,8.53,0,1,1-10.35,6.2A8.53,8.53,0,0,1,679.14,5.72Z"/></symbol></defs><title>optimizme-logo</title><g id="Calque_2" data-name="Calque 2"><g id="Layer_1" data-name="Layer 1"><use id="logo-3" data-name="logo" width="709.29" height="169.93" xlink:href="#logo"/></g></g></svg>