<svg xmlns="http://www.w3.org/2000/svg" xmlns:xlink="http://www.w3.org/1999/xlink" viewBox="0 0 400 95.85"><defs><style>.cls-1{fill:gray;}.cls-2{fill:#f08800;}</style><symbol id="logo" data-name="logo" viewBox="0 0 709.3 169.96"><path class="cls-1" d="M50.43,79.15A27.4,27.4,0,0,0,62,68.32,31.67,31.67,0,0,0,66.1,52.09,31.67,31.67,0,0,0,62,35.85,27.75,27.75,0,0,0,50.43,24.92a37.37,37.37,0,0,0-17.3-3.87A37.12,37.12,0,0,0,15.8,24.92,28.41,28.41,0,0,0,4.18,35.85,31.18,31.18,0,0,0,0,52.09,31.18,31.18,0,0,0,4.18,68.32,28,28,0,0,0,15.8,79.15a37.57,37.57,0,0,0,17.33,3.77A37.82,37.82,0,0,0,50.43,79.15ZM23.34,63.22q-3.76-4.38-3.76-11.35t3.76-11.41a12.33,12.33,0,0,1,9.79-4.33,12.28,12.28,0,0,1,9.74,4.33q3.76,4.33,3.76,11.41T42.87,63.22a12.22,12.22,0,0,1-9.74,4.39A12.26,12.26,0,0,1,23.34,63.22Z"/><path class="cls-1" d="M129.54,79.09a25.89,25.89,0,0,0,10-10.94,36.2,36.2,0,0,0,3.54-16.4,35.47,35.47,0,0,0-3.48-16.07,25.68,25.68,0,0,0-9.79-10.76,27.86,27.86,0,0,0-14.7-3.81,24.34,24.34,0,0,0-10.56,2.25,21.53,21.53,0,0,0-8,6.47V0H77.17V82.3H96.58v-8a22.17,22.17,0,0,0,7.84,6.42,23.09,23.09,0,0,0,10.26,2.2A28.41,28.41,0,0,0,129.54,79.09Zm-9.79-38.17q3.76,4.44,3.76,11.41t-3.76,11.35A12.27,12.27,0,0,1,110,68.07a12.12,12.12,0,0,1-9.6-4.39q-3.78-4.38-3.78-11.35a17.42,17.42,0,0,1,3.7-11.46A12.06,12.06,0,0,1,110,36.48,12.2,12.2,0,0,1,119.75,40.92Z"/><path class="cls-1" d="M185,22a34.08,34.08,0,0,0-8.67-1.12q-9,0-14.53,5t-5.54,14.2V66.78h-8.45V79.5h8.45V96.34h19.3V79.61h15.85V66.78H175.6V43.09q0-6.63,5.38-6.63a20,20,0,0,1,7.73,2L192.55,25A30.68,30.68,0,0,0,185,22Z"/><path class="cls-1" d="M219.39,107.06a10.92,10.92,0,0,0,0-14.78,10.77,10.77,0,0,0-14.72,0,10.13,10.13,0,0,0-2.85,7.4,10,10,0,0,0,2.85,7.37,10.85,10.85,0,0,0,14.72,0Zm-17.14-85.3V82.3h19.36V21.76Z"/><path class="cls-1" d="M333.89,76.84q5.89-6.33,5.89-16.92V21.75h-19.3v32.8q0,5.37-2.8,8.47a9.82,9.82,0,0,1-7.68,3.1A10.77,10.77,0,0,1,301.42,62a15.87,15.87,0,0,1-3.21-10.28v-30h-19.4V54.55q0,5.37-2.74,8.47a9.58,9.58,0,0,1-7.57,3.1,11,11,0,0,1-8.75-4.17,15.76,15.76,0,0,1-3.26-10.2v-30H237.13V82.3h19.36v-10a19.77,19.77,0,0,0,8.12,8.06,26,26,0,0,0,11.84,2.8,21.88,21.88,0,0,0,12.64-3.65,19.73,19.73,0,0,0,7.6-10.06A21.76,21.76,0,0,0,305,79.64a24.6,24.6,0,0,0,13,3.54Q328,83.18,333.89,76.84Z"/><path class="cls-1" d="M353.55,21.76V82.3h19.36V21.76Z"/><path class="cls-1" d="M408.89,36.35h30.66V21.76h-55V33.44l29.72,34.27H385.64V82.3h52.92V70.62Z"/><path class="cls-1" d="M633,75.15q5.84-6.11,5.84-16.86V21.77h-8.74V55.92q0,7.84-4.39,12.28t-12,4.44q-9.1-.22-14.23-6.17t-5.13-15.65V21.75h-8.83V55.92q0,7.84-4.33,12.28t-12.06,4.44q-9-.22-14.23-6.17t-5.24-15.65V21.75H541V80.92h8.61V67.59a21.06,21.06,0,0,0,8.64,10.15,27.67,27.67,0,0,0,14,3.51q8.33,0,13.82-4a19.83,19.83,0,0,0,7.41-11.43,21.43,21.43,0,0,0,8.69,11.54,27.53,27.53,0,0,0,14.67,3.92Q627.15,81.26,633,75.15Z"/><path class="cls-1" d="M702.88,72.24q7.07-8.91,6.36-24.32H661a21.05,21.05,0,0,1,6.94-13.76,21.27,21.27,0,0,1,14.51-5.1A26.42,26.42,0,0,1,692.61,31a24.42,24.42,0,0,1,8.17,5.49l4.82-5.16A29.06,29.06,0,0,0,695.21,24a34.19,34.19,0,0,0-13.41-2.58,30.8,30.8,0,0,0-15.35,3.76A26.24,26.24,0,0,0,656,35.74a32.08,32.08,0,0,0-3.7,15.57,31.51,31.51,0,0,0,3.75,15.55,26.58,26.58,0,0,0,10.5,10.53,30.89,30.89,0,0,0,15.3,3.76Q695.8,81.15,702.88,72.24Zm-7.27-3.59q-5.35,5-14,5a20.27,20.27,0,0,1-14.06-5A20.63,20.63,0,0,1,661,55.1h40.42Q700.95,63.66,695.61,68.65Z"/><circle class="cls-2" cx="491.07" cy="30.31" r="10"/><path class="cls-1" d="M488.89,63.23H487c.16,19.57-11.54,44.89-44.86,57.25-23.15,8.59-46,5.72-57-7.16l-1.43,1.21c11.43,13.48,35.15,16.58,59,7.71C477,109.56,489,83.44,488.89,63.23Z"/><path class="cls-1" d="M497.25,62.37l-1.88.77c.25.55,27.08,55,110.08,55v-1.88c-42,0-70.6-14.65-85.73-26.94C503.33,76,497.31,62.51,497.25,62.37Z"/><circle class="cls-2" cx="363.56" cy="99.61" r="11.21"/><path class="cls-2" d="M659.47,145.52s-5.64-7.22-9.56-20.92a30.42,30.42,0,0,0,6.71-.61c3.17,10.54,5.73,12.78,6.94,15.16a21.3,21.3,0,0,1-1.83,3.49A19.27,19.27,0,0,1,659.47,145.52Z"/><path class="cls-2" d="M645.7,106.47c-.31-1.69-.49-3.37-1.07-6.87l6.29-1.93c.67,4,1,6.21,1.37,8.44A31,31,0,0,1,645.7,106.47Z"/><path class="cls-2" d="M694.48,109.57a15.63,15.63,0,0,1-7.22-4.65A65.6,65.6,0,0,1,669,115.72c-9.45,3.86-20.85,3.68-21.17,3.63s-17.34,1.32-17.18,13.23c.09,6.71,3.63,12.83,9.44,15.37a47.21,47.21,0,0,0,14.27,3.3,91,91,0,0,0,9.67-.41,14,14,0,0,1,13.9-8.87,13.79,13.79,0,0,1,5.22,1.37h0a14,14,0,1,1-20,14,56.5,56.5,0,0,1-8.54.26,42.37,42.37,0,0,1-18.54-5.16c-9.38-5.05-12.94-14.92-12.07-21.52a21.24,21.24,0,0,1,12.08-16.62A23.08,23.08,0,0,1,648,112.18c6.16-.09,15-1.24,20.64-3.51,8.86-3.55,18.65-11.21,19.29-11.78,3.37,4.18,6.88,6.95,9,7.22ZM679.15,164.2A8.53,8.53,0,1,0,668.8,158a8.53,8.53,0,0,0,10.35,6.2Z"/></symbol></defs><title>logo-optimizme-color</title><g id="Calque_2" data-name="Calque 2"><g id="Calque_1-2" data-name="Calque 1"><g id="Calque_2-2" data-name="Calque 2"><g id="Layer_1" data-name="Layer 1"><use id="logo-3" width="709.3" height="169.96" transform="matrix(0.56, 0, 0, -0.56, 0, 95.85)" xlink:href="#logo"/></g></g></g></g></svg>