<svg xmlns="http://www.w3.org/2000/svg" viewBox="0 0 208.15 30.85"><defs><style>.cls-1,.cls-3{fill:#fff;}.cls-1,.cls-2{opacity:0.9;}.cls-1{isolation:isolate;}</style></defs><title>logo-mutualab-white</title><g id="Calque_2" data-name="Calque 2"><g id="Calque_1-2" data-name="Calque 1"><path class="cls-1" d="M189.14,30.85a2.34,2.34,0,0,1-2.34-2.34V8.15a2.34,2.34,0,0,1,4.69,0V28.5a2.35,2.35,0,0,1-2.34,2.34"/><g class="cls-2"><path class="cls-3" d="M199.29,10.49H189.14a2.34,2.34,0,1,1,0-4.69h10.15a2.34,2.34,0,1,1,0,4.69"/></g><g class="cls-2"><path class="cls-3" d="M200.45,30.85H189.14a2.34,2.34,0,1,1,0-4.69h11.31a2.34,2.34,0,1,1,0,4.69"/></g><g class="cls-2"><path class="cls-3" d="M199.29,20.1a2.34,2.34,0,1,1,0-4.69,2.48,2.48,0,0,0,0-5,2.34,2.34,0,1,1,0-4.69,7.17,7.17,0,0,1,0,14.33"/></g><g class="cls-2"><path class="cls-3" d="M200.45,30.85a2.34,2.34,0,1,1,0-4.69,3,3,0,1,0,0-6.07h-1.16a2.34,2.34,0,1,1,0-4.68h1.16a7.72,7.72,0,0,1,0,15.43"/></g><g class="cls-2"><path class="cls-3" d="M199.29,20.1H189.14a2.34,2.34,0,1,1,0-4.69h10.15a2.34,2.34,0,1,1,0,4.69"/></g><g class="cls-2"><path class="cls-3" d="M108.92,30.85a2.38,2.38,0,0,1-1.06-.25,2.34,2.34,0,0,1-1-3.15L117.18,7.09a2.34,2.34,0,0,1,4.17,2.12L111,29.57a2.37,2.37,0,0,1-2.09,1.28"/></g><g class="cls-2"><path class="cls-3" d="M129.6,30.85a2.37,2.37,0,0,1-2.09-1.28L117.17,9.22a2.34,2.34,0,0,1,4.17-2.12l10.34,20.35a2.34,2.34,0,0,1-1,3.15,2.38,2.38,0,0,1-1.06.25"/></g><g class="cls-2"><path class="cls-3" d="M127.31,26.34H111.21a2.34,2.34,0,1,1,0-4.69h16.09a2.34,2.34,0,1,1,0,4.69"/></g><g class="cls-2"><path class="cls-3" d="M12.21,23.9a2.34,2.34,0,0,1-1.88-1L.47,9.54A2.34,2.34,0,0,1,4.25,6.77l9.86,13.4a2.34,2.34,0,0,1-.5,3.27,2.4,2.4,0,0,1-1.39.45"/></g><g class="cls-2"><path class="cls-3" d="M12.2,23.9a2.31,2.31,0,0,1-1.41-.48,2.34,2.34,0,0,1-.44-3.27L20.56,6.74a2.34,2.34,0,1,1,3.71,2.84L14.06,23a2.35,2.35,0,0,1-1.86.92"/></g><g class="cls-2"><path class="cls-3" d="M22.41,30.85a2.35,2.35,0,0,1-2.34-2.34V8.15a2.34,2.34,0,1,1,4.69,0V28.5a2.34,2.34,0,0,1-2.34,2.34"/></g><g class="cls-2"><path class="cls-3" d="M2.34,30.85A2.35,2.35,0,0,1,0,28.5V8.15a2.34,2.34,0,1,1,4.69,0V28.5a2.34,2.34,0,0,1-2.34,2.34"/></g><g class="cls-2"><path class="cls-3" d="M139.3,30.85A2.35,2.35,0,0,1,137,28.5V8.15a2.34,2.34,0,0,1,4.69,0V28.5a2.35,2.35,0,0,1-2.34,2.34"/></g><g class="cls-2"><path class="cls-3" d="M151.34,30.85h-12a2.34,2.34,0,1,1,0-4.69h12a2.34,2.34,0,1,1,0,4.69"/></g><g class="cls-2"><path class="cls-3" d="M66.69,30.85a2.35,2.35,0,0,1-2.34-2.34V8.15a2.34,2.34,0,0,1,4.69,0V28.5a2.34,2.34,0,0,1-2.34,2.34"/></g><g class="cls-2"><path class="cls-3" d="M75.23,10.49H58.15a2.34,2.34,0,1,1,0-4.69H75.23a2.34,2.34,0,1,1,0,4.69"/></g><g class="cls-2"><path class="cls-3" d="M32.58,23.24a2.35,2.35,0,0,1-2.34-2.34V7.76a2.34,2.34,0,1,1,4.69,0V20.91a2.34,2.34,0,0,1-2.34,2.33"/></g><g class="cls-2"><path class="cls-3" d="M49.66,23.24a2.35,2.35,0,0,1-2.34-2.34V7.76a2.34,2.34,0,1,1,4.69,0V20.91a2.34,2.34,0,0,1-2.34,2.33"/></g><g class="cls-2"><path class="cls-3" d="M41.11,30.85c-5.89,0-10.86-4.55-10.86-9.94a2.34,2.34,0,0,1,4.69,0c0,2.8,2.89,5.26,6.18,5.26a6.82,6.82,0,0,0,4.41-1.65,4.83,4.83,0,0,0,1.8-3.61,2.34,2.34,0,1,1,4.69,0c0,5.39-5,9.94-10.9,9.94"/></g><g class="cls-2"><path class="cls-3" d="M83.3,23.24A2.34,2.34,0,0,1,81,20.89V7.76a2.34,2.34,0,0,1,4.69,0V20.91a2.35,2.35,0,0,1-2.34,2.33"/></g><g class="cls-2"><path class="cls-3" d="M100.37,23.24A2.34,2.34,0,0,1,98,20.89V7.76a2.34,2.34,0,0,1,4.69,0V20.91a2.35,2.35,0,0,1-2.34,2.33"/></g><g class="cls-2"><path class="cls-3" d="M91.81,30.85C85.92,30.85,81,26.29,81,20.91a2.34,2.34,0,0,1,4.69,0c0,2.8,2.89,5.26,6.18,5.26a6.82,6.82,0,0,0,4.4-1.65A4.83,4.83,0,0,0,98,20.91a2.34,2.34,0,0,1,4.69,0c0,5.39-5,9.94-10.9,9.94"/></g><g class="cls-2"><path class="cls-3" d="M160.12,30.84a2.38,2.38,0,0,1-1.06-.25,2.33,2.33,0,0,1-1-3.14L168.36,7.1a2.34,2.34,0,0,1,4.16,2.11L162.2,29.56a2.32,2.32,0,0,1-2.08,1.28"/></g><g class="cls-2"><path class="cls-3" d="M180.78,30.84a2.33,2.33,0,0,1-2.08-1.28L168.37,9.22a2.34,2.34,0,0,1,4.16-2.11l10.33,20.34a2.33,2.33,0,0,1-1,3.14,2.27,2.27,0,0,1-1.06.25"/></g><g class="cls-2"><path class="cls-3" d="M178.49,26.34H162.41a2.33,2.33,0,1,1,0-4.67h16.08a2.33,2.33,0,1,1,0,4.67"/></g><path class="cls-1" d="M174,3h-7.17a1.52,1.52,0,1,1,0-3H174a1.52,1.52,0,1,1,0,3"/></g></g></svg>