<svg xmlns="http://www.w3.org/2000/svg" viewBox="0 0 180.07 68.29"><defs><style>.cls-1{fill:#ee6667;}</style></defs><title>logo-freelance-color</title><g id="Calque_2" data-name="Calque 2"><g id="Calque_1-2" data-name="Calque 1"><g id="projets"><g id="Calque_2-2" data-name="Calque 2"><g id="Calque_1-2-2" data-name="Calque 1-2"><path class="cls-1" d="M61.5,22.79C60.67,23.89,59.88,25,59,26.07a22,22,0,0,1-4.53,4.42,4,4,0,0,1-4.73.33,4.56,4.56,0,0,1-2.06-4.61c.06-.69.16-1.38.26-2.16-.74,1-1.4,1.88-2.09,2.76a22.51,22.51,0,0,1-4.81,4.71,4,4,0,0,1-4.68.25,4.61,4.61,0,0,1-2-4.56,2.43,2.43,0,0,0-.07-1c-.36.57-.7,1.14-1.07,1.7a18.83,18.83,0,0,1-3.39,4.19,2.61,2.61,0,0,1-4.12-.76,4.25,4.25,0,0,1-.19-2.65,35.86,35.86,0,0,1,2.73-7.38c.67-1.5,1.4-3,2.06-4.48a2.07,2.07,0,0,0-.24-2.51,2.54,2.54,0,0,0-.29-.21c-3.11,6.1-6.22,12.14-8.4,18.6A2,2,0,0,1,20.26,30c1.09-2.36,2.18-4.74,3.38-7,1.58-3.05,3.28-6.05,4.92-9.08a1,1,0,0,0,0-1.11A2.58,2.58,0,0,1,29,9.91c.13-.2.29-.39.49-.65-1-.08-1.9-.11-2.79-.24-2.28-.32-4.56-.7-6.84-1a36.78,36.78,0,0,0-7.36-.8,9.12,9.12,0,0,0-6.72,3.39A23.42,23.42,0,0,0,2.19,17c-.17.4-.33,1.07-.78,1.1S.59,17.41.4,17a5.43,5.43,0,0,1,.87-5.46A15.53,15.53,0,0,1,6.89,6.84a25.15,25.15,0,0,1,10-3.08,35.54,35.54,0,0,1,5.66.15,72.4,72.4,0,0,0,9.55.71c.82,0,1,.2.68,1C32.2,6.75,31.52,7.83,30.87,9c.28.22.71.53,1.1.88s.32.66-.06,1a5.63,5.63,0,0,0-.64.59c-.71.8-.68,1.28.08,2a25.28,25.28,0,0,1,1.83,1.89,3.44,3.44,0,0,1,.43,4c-1.22,2.48-2.38,5-3.53,7.5a14.16,14.16,0,0,0-.69,2c-.07.23-.19.63,0,.77s.59-.14.74-.32a37.69,37.69,0,0,0,2.68-3.46c1.68-2.64,3.26-5.34,4.88-8A26.35,26.35,0,0,1,41.49,13c2.67-2.7,6.33-1,7.54,1.14a1.61,1.61,0,0,1,.16,1.4,15.09,15.09,0,0,1-5,7,3.53,3.53,0,0,1-3.43.65c-.48-.15-.82-.06-1,.37a9.94,9.94,0,0,0-1.15,4.39c0,1.49.88,2,2.26,1.44a11.06,11.06,0,0,0,4-3.3,62,62,0,0,0,6.3-9.17A25.15,25.15,0,0,1,54.83,12c2.68-2.71,6.33-1.05,7.54,1.12a1.61,1.61,0,0,1,.17,1.4,15,15,0,0,1-5,7,3.53,3.53,0,0,1-3.43.66c-.47-.14-.82-.08-1,.35A9.7,9.7,0,0,0,51.91,27c.05,1.44.88,1.94,2.24,1.39a10.63,10.63,0,0,0,3.79-3.08,46.09,46.09,0,0,0,5.69-8.12c1.2-2.15,2-4.51,3.15-6.71,1.62-3.14,3.34-6.22,5.07-9.32a2.5,2.5,0,0,1,4.23-.05c.27.38.09.61-.08.9-1.77,3.11-3.6,6.18-5.27,9.34a72.25,72.25,0,0,0-5.59,13.19c-.21.71-.4,1.43-.56,2.15a1.07,1.07,0,0,0,0,.75.21.21,0,0,0,.18.11c.47,0,.79-.57,1.05-.95,1.39-2,2.81-3.91,4.1-5.94,1.42-2.24,2.65-4.59,4.06-6.85A12.8,12.8,0,0,1,77.8,9.69a4.2,4.2,0,0,1,4.94,0c.77.5.78.5,1.29-.25A1.84,1.84,0,0,1,86,9a5,5,0,0,1,1.11.49c.9.53,1,.88.44,1.78a51.81,51.81,0,0,0-5.59,13.61c-.07.29-.25.8,0,1s.71-.22.88-.46c1.31-1.77,2.65-3.53,3.85-5.37,1.3-2,2.51-4.09,3.69-6.19.8-1.45,1.42-3,2.14-4.51a1.48,1.48,0,0,1,1.9-1,3.89,3.89,0,0,1,1,.32c1.19.57,1.31.94.75,2.11q-1.24,2.58-2.46,5.17a1.9,1.9,0,0,0-.24.83c0,.08.14.14.22.11.23-.1.37-.4.54-.62,1.38-1.81,2.69-3.67,4.14-5.42a9.11,9.11,0,0,1,3.86-3,3.36,3.36,0,0,1,2.51.06c1.1.46,1.25,1,.62,2a52.31,52.31,0,0,0-5.5,11.26c-.37,1.08-.64,2.2-.93,3.3-.05.19-.12.51.06.62s.52-.06.64-.21a41.74,41.74,0,0,0,2.91-3.71c1.88-2.94,3.58-6,5.49-8.9a30.75,30.75,0,0,1,3.62-4.51c2.51-2.59,6.75-1.13,7.83,1.39a1.91,1.91,0,0,1,.12,1.35,16,16,0,0,1-4.07,5.73,1.32,1.32,0,0,1-1.6.24,5.73,5.73,0,0,1-.54-.29c-1.1-.69-1.11-.88-.18-1.73a17.14,17.14,0,0,0,3.53-4.66c.14-.27.33-.77.08-1s-.77.05-1,.26A28.24,28.24,0,0,0,113.23,12a29.08,29.08,0,0,0-4.5,8.64,7.88,7.88,0,0,0-.35,2.25,1.41,1.41,0,0,0,2,1.45,8.14,8.14,0,0,0,3.78-2.72,51.8,51.8,0,0,0,5.69-8,37.22,37.22,0,0,1,4.63-6.38,4.92,4.92,0,0,1,3.49-1.82,5.25,5.25,0,0,1,4.57,2.84,1.43,1.43,0,0,1,.06.88,14.39,14.39,0,0,1-5.3,7.39,3.44,3.44,0,0,1-3.27.5.72.72,0,0,0-1,.35l0,.07a10,10,0,0,0-1.13,4.27c0,1.57.87,2.11,2.3,1.5A11.26,11.26,0,0,0,128.09,20,63.57,63.57,0,0,0,134,11.52a8.78,8.78,0,0,1,.63-1c.1-.13.33-.32.49-.23s.14.41.07.55c-.34.76-.72,1.5-1.11,2.23a40.23,40.23,0,0,1-7.38,10.35,14.94,14.94,0,0,1-3.36,2.5A3.89,3.89,0,0,1,118.21,24a7.38,7.38,0,0,1-.27-4.69,1.65,1.65,0,0,1,.05-.26s0,0-.06-.17l-.44.59a27.76,27.76,0,0,1-6,6.77,4.55,4.55,0,0,1-6-.37,5.18,5.18,0,0,1-1.18-4.15,1.32,1.32,0,0,0-.08-.7c-.51.78-1,1.6-1.53,2.34-1.08,1.38-2.19,2.73-3.37,4a2.34,2.34,0,0,1-2.94.62,3,3,0,0,1-1.59-3,18,18,0,0,1,1.65-5.95c1-2.28,2.1-4.53,3.14-6.79a5.72,5.72,0,0,0,.37-1c0-.07-.1-.14-.17-.13a4.14,4.14,0,0,0-.72.71,59.59,59.59,0,0,0-6.64,9.84c-1.11,2-2,4.16-3,6.25a.9.9,0,0,1-1.05.53A5.11,5.11,0,0,1,86.9,28c-.95-.47-1.68-.76-1.09-2.29A34.9,34.9,0,0,0,87,22.08c-.45.72-.85,1.47-1.36,2.16-.92,1.25-1.84,2.5-2.87,3.66a2.61,2.61,0,0,1-2.82,1,2.49,2.49,0,0,1-1.79-2.06,13,13,0,0,1,.77-5.16c.13-.47.41-1.24.4-1.39s-.1-.08-.16-.07a6,6,0,0,0-.59,1c-1.18,2-2.33,4.06-3.53,6.06a11.5,11.5,0,0,1-1.22,1.53,2.08,2.08,0,0,1-2.34.77,2.41,2.41,0,0,1-1.81-2.13c-.12-1.22,0-2.45,0-3.72-.14.22-.29.47-.45.7-1.15,1.6-2.28,3.24-3.49,4.8a3.11,3.11,0,0,1-2.19,1.34,2.55,2.55,0,0,1-2.73-3c.16-1.42.48-2.83.73-4.24,0-.17.08-.36.09-.51S61.54,22.81,61.5,22.79ZM73.62,26a.24.24,0,0,0,.29.13,1.52,1.52,0,0,0,.46-.45,34.15,34.15,0,0,0,2.22-3.05c2-3.43,4-6.9,5.91-10.37.14-.26.36-.7.14-.93s-.77-.07-1,.1a6,6,0,0,0-1.32,1.24,39,39,0,0,0-6,10.72A7.16,7.16,0,0,0,73.62,26Zm-27-12A.63.63,0,0,0,46,14a2.13,2.13,0,0,0-.75.66c-.93,1.18-1.86,2.37-2.71,3.61A26.64,26.64,0,0,0,41,20.78c-.09.16-.16.48,0,.63s.44.06.61,0a4.64,4.64,0,0,0,1-.69c1.79-1.67,2.81-3.83,4-6C46.65,14.56,46.92,14.24,46.61,14ZM59.94,13a.49.49,0,0,0-.61,0,3.39,3.39,0,0,0-.9.75,19.23,19.23,0,0,0-1.63,2.06c-.83,1.26-1.6,2.55-2.36,3.85-.11.19-.24.57-.06.74s.52,0,.73-.1a3.76,3.76,0,0,0,.87-.63,17.09,17.09,0,0,0,3.79-5.59c.14-.34.47-.77.18-1.07Zm70.22-5c-.06-.27-.48-.21-.63-.16a1.84,1.84,0,0,0-.67.44,25.89,25.89,0,0,0-4.53,6.51.41.41,0,0,0,0,.54.71.71,0,0,0,.59,0,4.26,4.26,0,0,0,.94-.64,15.41,15.41,0,0,0,3.51-4.91C129.67,9.24,130.24,8.32,130.15,8Z"/><path class="cls-1" d="M20.28,24.3l-6.59.48-.81.08A1.75,1.75,0,0,0,11.34,26c-1.11,2.7-2.28,5.38-3.39,8.08a.78.78,0,0,1-.79.59,4.58,4.58,0,0,1-3.56-1.12,1.05,1.05,0,0,1-.29-1.37C4.2,30.22,5,28.25,5.88,26.29c.06-.14.12-.29.19-.43.25-.53.05-.78-.5-.86A2.72,2.72,0,0,1,3.41,23c-.2-.86.06-1.13.92-1,.67.1,1.34.16,2,.26a1.63,1.63,0,0,0,1.83-1.15c.69-1.51,1.38-3,2.13-4.51,1.12-2.21,2.33-4.38,3.43-6.59A1.72,1.72,0,0,1,15.85,9a16.21,16.21,0,0,1,2.62,1c.5.23.55.63.26,1.18C17,14.41,15.29,17.71,13.58,21c0,0,0,0,0,.06-.49,1-.36,1.23.81,1.25,1.42,0,2.83.05,4.25.11a1.75,1.75,0,0,1,1.68,1.81Z"/><path class="cls-1" d="M127.8,36.23c.26-.82,1.4-.88,2.22-1l.47-.07a3.12,3.12,0,0,0,2.76-1.85c.7-1.12,1.1-1.88,1.62-2.84a1.59,1.59,0,0,1,1.7-.86,3.41,3.41,0,0,1,2.22,1.07.7.7,0,0,1,.08,1c-.52.8-1,1.62-1.47,2.45-.33.59-.2.73.48.76a8.16,8.16,0,0,1,1.74.24c.26.07.7.31.68.62s-.57.54-.88.59a11.19,11.19,0,0,1-1.91,0,2,2,0,0,0-2,1.18,83.59,83.59,0,0,0-6.13,14.4,10.57,10.57,0,0,0-.34,1.38c0,.21-.08.57.12.68s.46-.09.59-.22a12.21,12.21,0,0,0,1.53-1.65c2.38-3.42,4.79-6.81,7-10.31a43.22,43.22,0,0,0,2.58-5.11,1.32,1.32,0,0,1,1.43-.82,4.64,4.64,0,0,1,1.56.42c1.2.59,1.28,1,.62,2.13A52.2,52.2,0,0,0,138.85,52a2.65,2.65,0,0,0-.09,1.09c0,.09.14.14.22.13.34,0,.76-.54,1-.88,1.08-1.43,2.19-2.86,3.16-4.36,1.82-2.83,3.53-5.73,5.35-8.56a14.46,14.46,0,0,1,3.62-4,3.86,3.86,0,0,1,3.19-.59c.63.13,1.28.23,1.92.29A3,3,0,0,1,159.85,38a21.58,21.58,0,0,1-2.55,8.48,24.16,24.16,0,0,1-5.5,7.66,8.86,8.86,0,0,1-1.73,1.18c-1.59.83-3,.17-4.23-.78a4.21,4.21,0,0,1-1.77-4,3.53,3.53,0,0,0,0-1.28c-.17.27-.32.55-.5.81-1.11,1.55-2.16,3.15-3.36,4.63a4.84,4.84,0,0,1-2,1.47A2.41,2.41,0,0,1,135,54a12.36,12.36,0,0,1,.59-4.5,1.82,1.82,0,0,0,.08-.78c-.38.61-.76,1.22-1.15,1.82a25.36,25.36,0,0,1-4.62,5.71,3.11,3.11,0,0,1-2.47.93,2.44,2.44,0,0,1-2.16-2.65,34.36,34.36,0,0,1,.73-4.42,8.91,8.91,0,0,0,.27-1.41c-.57.85-1.13,1.7-1.73,2.53A24.66,24.66,0,0,1,119,57.09a4.58,4.58,0,0,1-6-.54,5.28,5.28,0,0,1-1.1-4.16,10.48,10.48,0,0,0,.09-1.5c-.65.86-1.29,1.73-2,2.57a23.42,23.42,0,0,1-4.94,4.78c-2.8,1.93-6.35.19-6.64-3.37a24.32,24.32,0,0,1,.06-2.5c-.45.71-.8,1.29-1.18,1.85a22.3,22.3,0,0,1-3.91,4.89c-1.14,1-2.06,1.18-3.1.61a2.79,2.79,0,0,1-1.49-3,22.53,22.53,0,0,1,1.2-4.8c1-2.59,2.29-5.1,3.44-7.64a12.89,12.89,0,0,0,.56-1.41c0-.09-.14-.17-.22-.15s-.59.59-.84.88a58.89,58.89,0,0,0-6.3,9.32c-1.21,2.2-2.19,4.53-3.32,6.77a1.22,1.22,0,0,1-.91.52A4,4,0,0,1,81,59.86c-1.45-.55-1.69-1.09-1.22-2.54.2-.63.42-1.25.64-1.87A9.2,9.2,0,0,0,81,53.62c-.39.62-.77,1.25-1.18,1.86a22.15,22.15,0,0,1-3.91,4.89c-1.15,1-2.06,1.18-3.1.62a2.79,2.79,0,0,1-1.5-3,22.38,22.38,0,0,1,1.2-4.8c1-2.59,2.28-5.1,3.43-7.64.21-.46.43-1,.56-1.41,0-.09-.14-.19-.22-.15-.24.1-.59.59-.83.88a59.19,59.19,0,0,0-6.34,9.38c-1.2,2.18-2.17,4.49-3.3,6.72a1.27,1.27,0,0,1-1,.53,4,4,0,0,1-1.51-.37c-1.38-.57-1.6-1-1.12-2.4A156.82,156.82,0,0,1,69,42a1.43,1.43,0,0,1,1.64-.91,4.82,4.82,0,0,1,1.41.45c1.08.56,1.14.88.61,2q-1.3,2.65-2.56,5.35a1.93,1.93,0,0,0-.26.76.27.27,0,0,0,.27.26h.07a9.83,9.83,0,0,0,.55-.85c1.35-1.8,2.65-3.64,4.1-5.37a9.2,9.2,0,0,1,3.9-3,3.39,3.39,0,0,1,2.65.12c1,.46,1.11,1,.53,1.89a53,53,0,0,0-5.74,12c-.29.88-.52,1.79-.74,2.69-.06.23-.16.62.05.76s.59-.14.74-.33a18.29,18.29,0,0,0,1.91-2.31c2.1-3.27,4.18-6.56,6.17-9.91a42.52,42.52,0,0,0,2.22-4.68c.41-.92.85-1.18,2.11-1a3.41,3.41,0,0,1,1,.41c1.05.57,1.13.88.62,1.91q-1.31,2.69-2.59,5.41a3.37,3.37,0,0,0-.24.7c0,.08.2.21.27.18a2.92,2.92,0,0,0,.61-.76,35.56,35.56,0,0,1,5.41-6.67,5.46,5.46,0,0,1,3.68-1.85,4.45,4.45,0,0,1,1.7.38c.85.37,1,.93.46,1.7A53.59,53.59,0,0,0,94.23,52c-.49,1.36-.84,2.78-1.22,4.18-.05.18-.09.51.09.61s.48-.07.59-.21a44.11,44.11,0,0,0,2.94-3.75c1.68-2.57,3.19-5.25,4.87-7.82,1.19-1.82,2.5-3.57,3.87-5.27A4.54,4.54,0,0,1,108.9,38a5.09,5.09,0,0,1,4.62,3,2.62,2.62,0,0,1-.24,1.61,15.38,15.38,0,0,1-4.93,6.5,3.58,3.58,0,0,1-3.41.61c-.48-.15-.82-.05-1,.38a9.58,9.58,0,0,0-1.14,4.58c.09,1.38.91,1.86,2.21,1.33a9.1,9.1,0,0,0,3.24-2.44,52,52,0,0,0,6.91-9.8,23.82,23.82,0,0,1,4.17-5.46,5.15,5.15,0,0,1,8,1.43,1.74,1.74,0,0,1,0,1.57,17.7,17.7,0,0,1-4,5.5,1.5,1.5,0,0,1-1.92.22,3.45,3.45,0,0,1-.47-.29c-1-.63-1-.85-.14-1.59a16.88,16.88,0,0,0,3.72-4.91c.11-.22.25-.63,0-.82s-.68-.08-.86.07a10.87,10.87,0,0,0-1.63,1.63,32.59,32.59,0,0,0-5.49,9.61,10.11,10.11,0,0,0-.55,2.79c-.07,1.29.82,1.9,2.06,1.55a7.37,7.37,0,0,0,3.73-2.75c1.83-2.36,3.53-4.8,5.26-7.22A47.16,47.16,0,0,0,131,37.59c.42-.88.24-1.14-.75-1.14-.81,0-1.87.11-2.43,0C127.77,36.46,127.78,36.32,127.8,36.23Zm20.05,16a1.11,1.11,0,0,0,.56.86,1.09,1.09,0,0,0,.88-.29,5.75,5.75,0,0,0,1-1.09A38.83,38.83,0,0,0,155.81,41a23,23,0,0,0,.74-3.45.62.62,0,0,0-.22-.59.88.88,0,0,0-.74.09,7.77,7.77,0,0,0-1.1,1.2,47.68,47.68,0,0,0-5.59,10.5c-.43,1.12-1.19,2.26-1,3.47ZM110.77,40.29c-.46-.17-.74.24-.91.44a30.93,30.93,0,0,0-2.23,2.65c-.86,1.23-1.6,2.54-2.36,3.83-.11.19-.22.59,0,.75s.45,0,.62-.06a2.45,2.45,0,0,0,.84-.57c1-1.22,2.06-2.42,2.94-3.73a13.5,13.5,0,0,0,1.25-2.71C111,40.73,111.09,40.4,110.77,40.29Z"/><path class="cls-1" d="M35.69,48.63c.22-.29.7-.23,1.05-.27A18.14,18.14,0,0,0,46,44.74a12.76,12.76,0,0,0,4.67-6.23,2.14,2.14,0,0,0-.32-2.31,2.55,2.55,0,0,0-2.5-.49,11.56,11.56,0,0,0-4.44,2.45A39.57,39.57,0,0,0,30.82,55.37a16.39,16.39,0,0,0-1.14,4.89A5.26,5.26,0,0,0,29.82,62,3,3,0,0,0,33,64.27a14.2,14.2,0,0,0,6.72-2.41A34.27,34.27,0,0,0,50.34,51.45c1.64-2.38,3.19-4.81,4.87-7.16a10.58,10.58,0,0,1,2.11-2,3.81,3.81,0,0,1,3.57-.53,4.1,4.1,0,0,0,1.12.17,3.07,3.07,0,0,1,3,3,22.07,22.07,0,0,1-2.57,8.47A24.25,24.25,0,0,1,56.89,61a11.65,11.65,0,0,1-1.74,1.18c-2.32,1.38-6.51-1.57-6-4.82a17.74,17.74,0,0,0,.27-2.63l-.53.69a40.52,40.52,0,0,1-8,8.35,14.81,14.81,0,0,1-4.52,2.47,7.78,7.78,0,0,1-8.47-2.23c-2.56-2.72-3.06-6-2.15-9.54,1.7-6.59,5.43-12,10.35-16.54a23.37,23.37,0,0,1,6.42-4.31,8.65,8.65,0,0,1,10,2A4.57,4.57,0,0,1,52.8,42a19.79,19.79,0,0,1-7.12,5.48,19.17,19.17,0,0,1-7.07,1.91,12,12,0,0,1-2.3-.19.86.86,0,0,1-.63-.29A.29.29,0,0,1,35.69,48.63ZM53,59.12a1.14,1.14,0,0,0,.54.88,1.11,1.11,0,0,0,.88-.26,5.62,5.62,0,0,0,1-1.08A39,39,0,0,0,60.93,48a22.41,22.41,0,0,0,.74-3.38.88.88,0,0,0-.29-.75c-.17-.09-.57.06-.76.22a6.34,6.34,0,0,0-1,1.1A47.7,47.7,0,0,0,54,55.67c-.42,1.11-1.17,2.24-1,3.44Z"/><path class="cls-1" d="M171.12,37.06c-.23,0-.62.64-.88,1a69.27,69.27,0,0,0-7.76,12c-.67,1.29-1.14,2.67-1.79,4a1.28,1.28,0,0,1-1,.54,3.77,3.77,0,0,1-1.45-.33c-1.41-.56-1.68-1.08-1.18-2.5a153.44,153.44,0,0,1,6.77-16.57,1.35,1.35,0,0,1,1.69-.92,4.12,4.12,0,0,1,1.29.4c1.14.59,1.21.91.65,2.06-.87,1.77-1.71,3.56-2.55,5.35-.11.23-.26.54-.18.74s.13.14.2.11a3.28,3.28,0,0,0,.62-.74c1.38-1.81,2.7-3.67,4.15-5.42a9.05,9.05,0,0,1,3.85-2.94,3.4,3.4,0,0,1,2.59.08c1.07.47,1.2,1,.59,2a52.9,52.9,0,0,0-5.71,11.89c-.29.93-.53,1.88-.76,2.82,0,.19-.12.51.06.63s.52-.07.64-.21a44.94,44.94,0,0,0,3-3.81c1.77-2.73,3.42-5.53,5.14-8.29.17-.27.48-.76.72-.62.47.27.08.63-.06.92a67.14,67.14,0,0,1-6.66,11.65,17.06,17.06,0,0,1-3,3.12,2.46,2.46,0,0,1-3.79-1.47,6.91,6.91,0,0,1,.26-3.89,54.27,54.27,0,0,1,3.95-9.42,12.31,12.31,0,0,0,.87-1.95C171.42,37.11,171.23,37,171.12,37.06Z"/><path class="cls-1" d="M147.76,26.1A2,2,0,0,1,150,28.16a3.34,3.34,0,0,1-3.09,3.24,2.08,2.08,0,0,1-2.1-2.55A3.42,3.42,0,0,1,147.76,26.1Z"/><path class="cls-1" d="M68.07,67.41s34.92-4.76,64.49-5.62,8.78,3.09,8.78,3.09-16.49,0-38,1.31S68.14,69.43,68.07,67.41Z"/></g></g></g></g></g></svg>