<svg xmlns="http://www.w3.org/2000/svg" viewBox="0 0 523.3 169.72"><defs><style>.cls-1{fill:#231f20;}</style></defs><title>logo-full</title><g id="Calque_2" data-name="Calque 2"><g id="Calque_1-2" data-name="Calque 1"><g id="logotype"><path class="cls-1" d="M141.13.47a3,3,0,0,0-3.24,0L1.38,88.1a3,3,0,0,0,0,5L115,169.21a3,3,0,0,0,4.64-2.08L142.48,3.42A3,3,0,0,0,141.13.47ZM51.67,96.64l49.13,55.87L13.24,93.87Zm.2-5L11.5,88.73,122,17.8Zm62.6,68.84L56.25,94.29,135.36,11Z"/><path class="cls-1" d="M228.19,57.92H188.13A.94.94,0,0,0,187.07,59V64.8a.94.94,0,0,0,1.06,1.06h15.45v45.23a.94.94,0,0,0,1.06,1.06h6.95a.94.94,0,0,0,1.06-1.06V65.86h15.53a.94.94,0,0,0,1.06-1.06V59A.94.94,0,0,0,228.19,57.92Z"/><path class="cls-1" d="M248,67.49l2.2,1.35a.68.68,0,0,0,1,0l11.2-9.57a1.17,1.17,0,0,0,.35-.85v-.5a.64.64,0,0,0-.71-.71h-8.22a.86.86,0,0,0-.85.42l-5.17,8.86A.7.7,0,0,0,248,67.49Z"/><path class="cls-1" d="M252.72,72.6c-13.82,0-16.94,4-16.94,20s3.12,19.92,16.94,19.92a87.67,87.67,0,0,0,12.69-.78,1.07,1.07,0,0,0,1-1.21v-4.39a.94.94,0,0,0-1.06-1.06H253.21c-6.88,0-8.58-1.7-8.79-9.22h24.4a.48.48,0,0,0,.48-.48v-1.2c0-.08,0-.16,0-.24V91.81C269.16,76.42,266,72.6,252.72,72.6Zm0,7.44c6.31,0,7.87,2,7.94,9.64H244.42C244.49,82,246.12,80,252.72,80Z"/><path class="cls-1" d="M297.09,105.06H294c-3.47,0-4.4-.64-4.4-3.76V79.68h7a1,1,0,0,0,1.13-1.13V74.08A1,1,0,0,0,296.6,73h-7V63.1c0-.78-.43-1.21-1.21-1l-6.45,1.63c-.64.14-1,.43-1,1.13V73h-4a1,1,0,0,0-1.13,1.06v4.47a1,1,0,0,0,1.13,1.13h4v24.17c0,8.51,5.74,8.65,11.27,8.65a31.9,31.9,0,0,0,5-.5,1.14,1.14,0,0,0,1.06-1.28v-4.68C298.3,105.35,297.94,105.06,297.09,105.06Z"/><path class="cls-1" d="M348.56,72.6a63.15,63.15,0,0,0-11.7.92c-.71.14-1,.28-1,1.13V79c0,.85.21,1.06,1.06,1.06h11.63c5.67,0,8,1.7,8,5.67V89.4H346.29c-8.72,0-13.47,2.27-13.47,11.27,0,10.28,5,11.84,15,11.84,6,0,12.26-.5,16-1.56a1.8,1.8,0,0,0,1.42-2.06V84.22C365.15,76.57,361,72.6,348.56,72.6Zm8,32a38.21,38.21,0,0,1-8.08.78c-5.25,0-7.16-1-7.16-5,0-3.54,1.7-4.75,5.46-4.75h9.78Z"/><path class="cls-1" d="M391.87,68.84a.68.68,0,0,0,1,0l2.2-1.35a.7.7,0,0,0,.21-1l-5.18-8.86a.86.86,0,0,0-.85-.42H381a.64.64,0,0,0-.71.71v.5a1.56,1.56,0,0,0,.35.85Z"/><path class="cls-1" d="M449.37,58h-6.45c-.71,0-1.06.28-1.06,1.06V72.6h-12v.09c-10.62.67-13.26,5.43-13.26,19.9,0,15.88,3.12,19.92,17.44,19.92a84.65,84.65,0,0,0,15.17-1.28,1.29,1.29,0,0,0,1.28-1.49V59.05C450.43,58.28,450.15,58,449.37,58Zm-7.51,46.51a63.37,63.37,0,0,1-7.94.57c-8,0-8.79-2.84-8.79-12.48,0-10.21,1.06-12.55,9-12.55h7.73Z"/><path class="cls-1" d="M523.3,91.81c0-.66,0-1.28,0-1.9v-.07h0c-.4-13.74-3.81-17.24-16.55-17.24-13.82,0-16.94,4-16.94,20s3.12,19.92,16.94,19.92a87.67,87.67,0,0,0,12.69-.78,1.07,1.07,0,0,0,1-1.21v-4.39a.94.94,0,0,0-1.06-1.06H507.21c-6.88,0-8.58-1.7-8.79-9.22h24.41a.48.48,0,0,0,.48-.48V94.12c0-.06,0-.12,0-.18ZM506.71,80c6.31,0,7.87,2,7.94,9.64H498.42C498.49,82,500.12,80,506.71,80Z"/><path class="cls-1" d="M408.35,89.84h0C408,76.1,404.54,72.6,391.8,72.6c-13.82,0-16.94,4-16.94,20s3.12,19.92,16.94,19.92a87.67,87.67,0,0,0,12.69-.78,1.07,1.07,0,0,0,1-1.21v-4.39a.94.94,0,0,0-1.06-1.06H392.3c-6.88,0-8.58-1.7-8.79-9.22h24.41a.48.48,0,0,0,.48-.48V94.12c0-.06,0-.12,0-.18V91.81c0-.66,0-1.28,0-1.9ZM391.8,80c6.31,0,7.87,2,7.94,9.64H383.51C383.58,82,385.21,80,391.8,80Z"/><path class="cls-1" d="M482.05,72.6H468.72a7.16,7.16,0,0,0-7.15,7h0v31.5a.94.94,0,0,0,1.06,1.06h6.45a.94.94,0,0,0,1.06-1.06V83.87c0-3.12,1.27-3.8,5.52-3.8h6.39a1.19,1.19,0,0,0,.14,0A1,1,0,0,0,483.32,79V73.87A1.27,1.27,0,0,0,482.05,72.6Z"/><path class="cls-1" d="M326.87,72.6H313.54a7.16,7.16,0,0,0-7.15,7h0v31.5a.94.94,0,0,0,1.06,1.06h6.45a.94.94,0,0,0,1.06-1.06V83.87c0-2.81,1-3.66,4.37-3.8h7.54a1.19,1.19,0,0,0,.14,0A1,1,0,0,0,328.14,79V73.87A1.27,1.27,0,0,0,326.87,72.6Z"/></g></g></g></svg>